<?xml version="1.0" encoding="UTF-8" standalone="no"?>
<!DOCTYPE svg PUBLIC "-//W3C//DTD SVG 1.1//EN"
 "http://www.w3.org/Graphics/SVG/1.1/DTD/svg11.dtd">
<!-- Generated by graphviz version 2.43.0 (0)
 -->
<!-- Title: %3 Pages: 1 -->
<svg width="1613pt" height="757pt"
 viewBox="0.00 0.00 1612.84 756.80" xmlns="http://www.w3.org/2000/svg" xmlns:xlink="http://www.w3.org/1999/xlink">
<g id="graph0" class="graph" transform="scale(1 1) rotate(0) translate(4 752.8)">
<title>%3</title>
<polygon fill="white" stroke="transparent" points="-4,4 -4,-752.8 1608.84,-752.8 1608.84,4 -4,4"/>
<!-- I0213 -->
<g id="node1" class="node">
<title>I0213</title>
<polygon fill="lightblue" stroke="black" points="584,-93.8 0,-93.8 0,-71.8 584,-71.8 584,-93.8"/>
<text text-anchor="middle" x="292" y="-79.1" font-family="Times,serif" font-size="14.00">Сергей &#160;(1784&#45;н. в.)</text>
</g>
<!-- F0110 -->
<g id="node2" class="node">
<title>F0110</title>
<ellipse fill="none" stroke="black" cx="146.08" cy="-104.4" rx="5.5" ry="5.5"/>
</g>
<!-- F0110&#45;&gt;I0213 -->
<g id="edge1" class="edge">
<title>F0110&#45;&gt;I0213</title>
<path fill="none" stroke="black" d="M151.62,-103.58C162.97,-101.9 190.1,-97.88 217.52,-93.82"/>
</g>
<!-- I0219 -->
<g id="node3" class="node">
<title>I0219</title>
<polygon fill="lightblue" stroke="black" points="788.52,-137 204.52,-137 204.52,-115 788.52,-115 788.52,-137"/>
<text text-anchor="middle" x="496.52" y="-122.3" font-family="Times,serif" font-size="14.00">Герасим &#160;(1812&#45;н. в.)</text>
</g>
<!-- F0110&#45;&gt;I0219 -->
<g id="edge2" class="edge">
<title>F0110&#45;&gt;I0219</title>
<path fill="none" stroke="black" d="M151.58,-104.74C170.84,-105.93 237.8,-110.05 307.67,-114.36"/>
<polygon fill="black" stroke="black" points="318,-115 307.74,-118.87 313.01,-114.69 308.01,-114.38 308.01,-114.38 308.01,-114.38 313.01,-114.69 308.29,-109.89 318,-115 318,-115"/>
</g>
<!-- I0214 -->
<g id="node4" class="node">
<title>I0214</title>
<polygon fill="lightblue" stroke="black" points="730.08,-180.2 146.08,-180.2 146.08,-158.2 730.08,-158.2 730.08,-180.2"/>
<text text-anchor="middle" x="438.08" y="-165.5" font-family="Times,serif" font-size="14.00">Павел &#160;(1804&#45;н. в.)</text>
</g>
<!-- F0110&#45;&gt;I0214 -->
<g id="edge3" class="edge">
<title>F0110&#45;&gt;I0214</title>
<path fill="none" stroke="black" d="M151.65,-105.64C179.23,-111.76 302.82,-139.18 378.36,-155.95"/>
<polygon fill="black" stroke="black" points="388.23,-158.14 377.49,-160.36 383.35,-157.05 378.46,-155.97 378.46,-155.97 378.46,-155.97 383.35,-157.05 379.44,-151.58 388.23,-158.14 388.23,-158.14"/>
</g>
<!-- F0111 -->
<g id="node5" class="node">
<title>F0111</title>
<ellipse fill="none" stroke="black" cx="401.76" cy="-190.8" rx="5.5" ry="5.5"/>
</g>
<!-- F0111&#45;&gt;I0214 -->
<g id="edge4" class="edge">
<title>F0111&#45;&gt;I0214</title>
<path fill="none" stroke="black" d="M406.51,-187.98C409.89,-185.96 414.68,-183.12 419.51,-180.25"/>
</g>
<!-- I0217 -->
<g id="node6" class="node">
<title>I0217</title>
<polygon fill="lightblue" stroke="black" points="1058.82,-223.4 474.82,-223.4 474.82,-201.4 1058.82,-201.4 1058.82,-223.4"/>
<text text-anchor="middle" x="766.82" y="-208.7" font-family="Times,serif" font-size="14.00">Яков &#160;(1849&#45;н. в.)</text>
</g>
<!-- F0111&#45;&gt;I0217 -->
<g id="edge5" class="edge">
<title>F0111&#45;&gt;I0217</title>
<path fill="none" stroke="black" d="M407.49,-191.14C427.59,-192.33 497.59,-196.47 570.54,-200.79"/>
<polygon fill="black" stroke="black" points="580.85,-201.4 570.6,-205.3 575.86,-201.1 570.87,-200.81 570.87,-200.81 570.87,-200.81 575.86,-201.1 571.13,-196.31 580.85,-201.4 580.85,-201.4"/>
</g>
<!-- I0218 -->
<g id="node7" class="node">
<title>I0218</title>
<polygon fill="LightYellow" stroke="black" points="1092.48,-266.6 508.48,-266.6 508.48,-244.6 1092.48,-244.6 1092.48,-266.6"/>
<text text-anchor="middle" x="800.48" y="-251.9" font-family="Times,serif" font-size="14.00">НЗ &#160;(1853&#45;н. в.)</text>
</g>
<!-- F0111&#45;&gt;I0218 -->
<g id="edge6" class="edge">
<title>F0111&#45;&gt;I0218</title>
<path fill="none" stroke="black" d="M407.4,-191.72C441.09,-197.19 617.99,-225.94 722.64,-242.95"/>
<polygon fill="black" stroke="black" points="732.54,-244.56 721.94,-247.4 727.6,-243.76 722.67,-242.95 722.67,-242.95 722.67,-242.95 727.6,-243.76 723.39,-238.51 732.54,-244.56 732.54,-244.56"/>
</g>
<!-- I0223 -->
<g id="node8" class="node">
<title>I0223</title>
<polygon fill="pink" stroke="black" points="1058.82,-309.8 474.82,-309.8 474.82,-287.8 1058.82,-287.8 1058.82,-309.8"/>
<text text-anchor="middle" x="766.82" y="-295.1" font-family="Times,serif" font-size="14.00">Афросинья &#160;(1849&#45;н. в.)</text>
</g>
<!-- F0111&#45;&gt;I0223 -->
<g id="edge7" class="edge">
<title>F0111&#45;&gt;I0223</title>
<path fill="none" stroke="black" d="M407.2,-192.41C441.61,-202.59 630.35,-258.43 719.78,-284.88"/>
<polygon fill="black" stroke="black" points="729.41,-287.73 718.54,-289.21 724.61,-286.31 719.82,-284.9 719.82,-284.9 719.82,-284.9 724.61,-286.31 721.1,-280.58 729.41,-287.73 729.41,-287.73"/>
</g>
<!-- I0216 -->
<g id="node9" class="node">
<title>I0216</title>
<polygon fill="lightblue" stroke="black" points="1058.82,-353 474.82,-353 474.82,-331 1058.82,-331 1058.82,-353"/>
<text text-anchor="middle" x="766.82" y="-338.3" font-family="Times,serif" font-size="14.00">Сергей &#160;(1849&#45;н. в.)</text>
</g>
<!-- F0111&#45;&gt;I0216 -->
<g id="edge8" class="edge">
<title>F0111&#45;&gt;I0216</title>
<path fill="none" stroke="black" d="M406.92,-192.94C442.02,-207.47 646.75,-292.27 730.81,-327.09"/>
<polygon fill="black" stroke="black" points="740.21,-330.98 729.25,-331.31 735.59,-329.07 730.97,-327.15 730.97,-327.15 730.97,-327.15 735.59,-329.07 732.69,-323 740.21,-330.98 740.21,-330.98"/>
</g>
<!-- I0215 -->
<g id="node10" class="node">
<title>I0215</title>
<polygon fill="lightblue" stroke="black" points="985.76,-396.2 401.76,-396.2 401.76,-374.2 985.76,-374.2 985.76,-396.2"/>
<text text-anchor="middle" x="693.76" y="-381.5" font-family="Times,serif" font-size="14.00">Алексей &#160;(1839&#45;н. в.)</text>
</g>
<!-- F0111&#45;&gt;I0215 -->
<g id="edge9" class="edge">
<title>F0111&#45;&gt;I0215</title>
<path fill="none" stroke="black" d="M406.35,-193.85C436.28,-213.78 604.61,-325.85 668.85,-368.62"/>
<polygon fill="black" stroke="black" points="677.2,-374.17 666.38,-372.38 673.04,-371.4 668.87,-368.63 668.87,-368.63 668.87,-368.63 673.04,-371.4 671.37,-364.89 677.2,-374.17 677.2,-374.17"/>
</g>
<!-- I0220 -->
<g id="node11" class="node">
<title>I0220</title>
<polygon fill="pink" stroke="black" points="890.8,-439.4 306.8,-439.4 306.8,-417.4 890.8,-417.4 890.8,-439.4"/>
<text text-anchor="middle" x="598.8" y="-424.7" font-family="Times,serif" font-size="14.00">Авдотья &#160;(1826&#45;н. в.)</text>
</g>
<!-- F0111&#45;&gt;I0220 -->
<g id="edge10" class="edge">
<title>F0111&#45;&gt;I0220</title>
<path fill="none" stroke="black" d="M405.52,-195.33C428.88,-223.5 554.27,-374.71 589.56,-417.26"/>
</g>
<!-- I0026 -->
<g id="node12" class="node">
<title>I0026</title>
<polygon fill="lightblue" stroke="black" points="1146.48,-482.6 562.48,-482.6 562.48,-460.6 1146.48,-460.6 1146.48,-482.6"/>
<text text-anchor="middle" x="854.48" y="-467.9" font-family="Times,serif" font-size="14.00">Петр &#160;(1861&#45;н. в.)</text>
</g>
<!-- F0012 -->
<g id="node13" class="node">
<title>F0012</title>
<ellipse fill="none" stroke="black" cx="781.62" cy="-493.2" rx="5.5" ry="5.5"/>
</g>
<!-- F0012&#45;&gt;I0026 -->
<g id="edge11" class="edge">
<title>F0012&#45;&gt;I0026</title>
<path fill="none" stroke="black" d="M787.34,-491.51C793.98,-489.54 805.53,-486.11 817.19,-482.66"/>
</g>
<!-- I0027 -->
<g id="node14" class="node">
<title>I0027</title>
<polygon fill="pink" stroke="black" points="1365.62,-525.8 781.62,-525.8 781.62,-503.8 1365.62,-503.8 1365.62,-525.8"/>
<text text-anchor="middle" x="1073.62" y="-511.1" font-family="Times,serif" font-size="14.00">Елена &#160;(1891&#45;н. в.)</text>
</g>
<!-- F0012&#45;&gt;I0027 -->
<g id="edge12" class="edge">
<title>F0012&#45;&gt;I0027</title>
<path fill="none" stroke="black" d="M787.19,-493.61C804.26,-494.87 858.11,-498.86 914.58,-503.04"/>
<polygon fill="black" stroke="black" points="924.77,-503.79 914.47,-507.54 919.79,-503.42 914.8,-503.05 914.8,-503.05 914.8,-503.05 919.79,-503.42 915.13,-498.56 924.77,-503.79 924.77,-503.79"/>
</g>
<!-- F0013 -->
<g id="node15" class="node">
<title>F0013</title>
<ellipse fill="none" stroke="black" cx="927.7" cy="-536.4" rx="5.5" ry="5.5"/>
</g>
<!-- F0013&#45;&gt;I0027 -->
<g id="edge13" class="edge">
<title>F0013&#45;&gt;I0027</title>
<path fill="none" stroke="black" d="M933.24,-535.58C944.59,-533.9 971.72,-529.88 999.14,-525.82"/>
</g>
<!-- I0028 -->
<g id="node16" class="node">
<title>I0028</title>
<polygon fill="lightblue" stroke="black" points="1365.62,-569 781.62,-569 781.62,-547 1365.62,-547 1365.62,-569"/>
<text text-anchor="middle" x="1073.62" y="-554.3" font-family="Times,serif" font-size="14.00">Григорий &#160;(1891&#45;н. в.)</text>
</g>
<!-- F0013&#45;&gt;I0028 -->
<g id="edge14" class="edge">
<title>F0013&#45;&gt;I0028</title>
<path fill="none" stroke="black" d="M933.24,-537.22C944.59,-538.9 971.72,-542.92 999.14,-546.98"/>
</g>
<!-- I0029 -->
<g id="node17" class="node">
<title>I0029</title>
<polygon fill="lightblue" stroke="black" points="1161.58,-612.2 927.58,-612.2 927.58,-590.2 1161.58,-590.2 1161.58,-612.2"/>
<text text-anchor="middle" x="1044.58" y="-597.5" font-family="Times,serif" font-size="14.00">Петр Григорьев (1911&#45;1943)</text>
</g>
<!-- F0013&#45;&gt;I0029 -->
<g id="edge15" class="edge">
<title>F0013&#45;&gt;I0029</title>
<path fill="none" stroke="black" d="M932.72,-539.18C946.78,-546.98 987.32,-569.45 1015.52,-585.09"/>
<polygon fill="black" stroke="black" points="1024.55,-590.1 1013.63,-589.18 1020.18,-587.67 1015.81,-585.25 1015.81,-585.25 1015.81,-585.25 1020.18,-587.67 1017.99,-581.31 1024.55,-590.1 1024.55,-590.1"/>
</g>
<!-- I0171 -->
<g id="node18" class="node">
<title>I0171</title>
<polygon fill="lightblue" stroke="black" points="1263.36,-655.4 679.36,-655.4 679.36,-633.4 1263.36,-633.4 1263.36,-655.4"/>
<text text-anchor="middle" x="971.36" y="-640.7" font-family="Times,serif" font-size="14.00">Иван &#160;(1877&#45;н. в.)</text>
</g>
<!-- F0093 -->
<g id="node19" class="node">
<title>F0093</title>
<ellipse fill="none" stroke="black" cx="825.46" cy="-666" rx="5.5" ry="5.5"/>
</g>
<!-- F0093&#45;&gt;I0171 -->
<g id="edge16" class="edge">
<title>F0093&#45;&gt;I0171</title>
<path fill="none" stroke="black" d="M831,-665.18C842.35,-663.5 869.48,-659.48 896.89,-655.42"/>
</g>
<!-- I0172 -->
<g id="node20" class="node">
<title>I0172</title>
<polygon fill="lightblue" stroke="black" points="1154.3,-698.6 825.3,-698.6 825.3,-676.6 1154.3,-676.6 1154.3,-698.6"/>
<text text-anchor="middle" x="989.8" y="-683.9" font-family="Times,serif" font-size="14.00">Семен Иванов (1897&#45;1942)</text>
</g>
<!-- F0093&#45;&gt;I0172 -->
<g id="edge17" class="edge">
<title>F0093&#45;&gt;I0172</title>
<path fill="none" stroke="black" d="M830.93,-666.72C841.94,-668.17 868.13,-671.61 896.14,-675.29"/>
<polygon fill="black" stroke="black" points="906.1,-676.6 895.6,-679.76 901.15,-675.95 896.19,-675.3 896.19,-675.3 896.19,-675.3 901.15,-675.95 896.77,-670.83 906.1,-676.6 906.1,-676.6"/>
</g>
<!-- 1800&#45;2 -->
<g id="node21" class="node">
<title>1800&#45;2</title>
<polygon fill="none" stroke="transparent" points="143.88,-36 89.88,-36 89.88,0 143.88,0 143.88,-36"/>
<polyline fill="none" stroke="black" points="89.88,0 143.88,0 "/>
<text text-anchor="middle" x="116.88" y="-14.3" font-family="Times,serif" font-size="14.00">1800</text>
</g>
<!-- 180031 -->
<g id="node22" class="node">
<title>180031</title>
<polygon fill="none" stroke="transparent" points="143.88,-748.8 89.88,-748.8 89.88,-712.8 143.88,-712.8 143.88,-748.8"/>
<polyline fill="none" stroke="black" points="89.88,-712.8 143.88,-712.8 "/>
<text text-anchor="middle" x="116.88" y="-727.1" font-family="Times,serif" font-size="14.00">1800</text>
</g>
<!-- 180031&#45;&gt;1800&#45;2 -->
<g id="edge18" class="edge">
<title>180031&#45;&gt;1800&#45;2</title>
<path fill="none" stroke="black" d="M116.88,-712.46C116.88,-612.66 116.88,-135.71 116.88,-36.21"/>
</g>
<!-- 1900&#45;2 -->
<g id="node23" class="node">
<title>1900&#45;2</title>
<polygon fill="none" stroke="transparent" points="874.36,-36 820.36,-36 820.36,0 874.36,0 874.36,-36"/>
<polyline fill="none" stroke="black" points="820.36,0 874.36,0 "/>
<text text-anchor="middle" x="847.36" y="-14.3" font-family="Times,serif" font-size="14.00">1900</text>
</g>
<!-- 190031 -->
<g id="node24" class="node">
<title>190031</title>
<polygon fill="none" stroke="transparent" points="874.36,-748.8 820.36,-748.8 820.36,-712.8 874.36,-712.8 874.36,-748.8"/>
<polyline fill="none" stroke="black" points="820.36,-712.8 874.36,-712.8 "/>
<text text-anchor="middle" x="847.36" y="-727.1" font-family="Times,serif" font-size="14.00">1900</text>
</g>
<!-- 190031&#45;&gt;1900&#45;2 -->
<g id="edge19" class="edge">
<title>190031&#45;&gt;1900&#45;2</title>
<path fill="none" stroke="black" d="M847.36,-712.46C847.36,-612.66 847.36,-135.71 847.36,-36.21"/>
</g>
<!-- ВОВ&#45;2 -->
<g id="node25" class="node">
<title>ВОВ&#45;2</title>
<polygon fill="none" stroke="transparent" points="1177.3,-36 1123.3,-36 1123.3,0 1177.3,0 1177.3,-36"/>
<polyline fill="none" stroke="black" points="1123.3,0 1177.3,0 "/>
<text text-anchor="middle" x="1150.3" y="-14.3" font-family="Times,serif" font-size="14.00">ВОВ</text>
</g>
<!-- ВОВ31 -->
<g id="node26" class="node">
<title>ВОВ31</title>
<polygon fill="none" stroke="transparent" points="1177.3,-748.8 1123.3,-748.8 1123.3,-712.8 1177.3,-712.8 1177.3,-748.8"/>
<polyline fill="none" stroke="black" points="1123.3,-712.8 1177.3,-712.8 "/>
<text text-anchor="middle" x="1150.3" y="-727.1" font-family="Times,serif" font-size="14.00">ВОВ</text>
</g>
<!-- ВОВ31&#45;&gt;ВОВ&#45;2 -->
<g id="edge20" class="edge">
<title>ВОВ31&#45;&gt;ВОВ&#45;2</title>
<path fill="none" stroke="black" d="M1150.3,-712.46C1150.3,-612.66 1150.3,-135.71 1150.3,-36.21"/>
</g>
<!-- &#45;2 -->
<g id="node27" class="node">
<title>&#45;2</title>
<polygon fill="none" stroke="transparent" points="1205.64,-36 1151.64,-36 1151.64,0 1205.64,0 1205.64,-36"/>
<polyline fill="none" stroke="black" points="1151.64,0 1205.64,0 "/>
</g>
<!-- 31 -->
<g id="node28" class="node">
<title>31</title>
<polygon fill="none" stroke="transparent" points="1205.64,-748.8 1151.64,-748.8 1151.64,-712.8 1205.64,-712.8 1205.64,-748.8"/>
<polyline fill="none" stroke="black" points="1151.64,-712.8 1205.64,-712.8 "/>
</g>
<!-- 31&#45;&gt;&#45;2 -->
<g id="edge21" class="edge">
<title>31&#45;&gt;&#45;2</title>
<path fill="none" stroke="black" d="M1178.64,-712.46C1178.64,-612.66 1178.64,-135.71 1178.64,-36.21"/>
</g>
<!-- 2000&#45;2 -->
<g id="node29" class="node">
<title>2000&#45;2</title>
<polygon fill="none" stroke="transparent" points="1604.84,-36 1550.84,-36 1550.84,0 1604.84,0 1604.84,-36"/>
<polyline fill="none" stroke="black" points="1550.84,0 1604.84,0 "/>
<text text-anchor="middle" x="1577.84" y="-14.3" font-family="Times,serif" font-size="14.00">2000</text>
</g>
<!-- 200031 -->
<g id="node30" class="node">
<title>200031</title>
<polygon fill="none" stroke="transparent" points="1604.84,-748.8 1550.84,-748.8 1550.84,-712.8 1604.84,-712.8 1604.84,-748.8"/>
<polyline fill="none" stroke="black" points="1550.84,-712.8 1604.84,-712.8 "/>
<text text-anchor="middle" x="1577.84" y="-727.1" font-family="Times,serif" font-size="14.00">2000</text>
</g>
<!-- 200031&#45;&gt;2000&#45;2 -->
<g id="edge22" class="edge">
<title>200031&#45;&gt;2000&#45;2</title>
<path fill="none" stroke="black" d="M1577.84,-712.46C1577.84,-612.66 1577.84,-135.71 1577.84,-36.21"/>
</g>
</g>
</svg>
