<?xml version="1.0" encoding="UTF-8"?>
<svg xmlns="http://www.w3.org/2000/svg" xmlns:xlink="http://www.w3.org/1999/xlink"
     width="850" height="300" viewBox="0 0 850 300">
<defs>
</defs>
<path d="M75.0,25.0 L75.0,100" stroke="gray" stroke-width="0.8" fill="none" />
<path d="M150,133.5 L170,133.5" stroke="black" stroke-width="0.8" fill="none" />
<path d="M160.0,133.5 L100.49999999999999,200" stroke="gray" stroke-width="0.8" fill="none" />
<path d="M160.0,133.5 L270.5,200" stroke="gray" stroke-width="0.8" fill="none" />
<path d="M160.0,133.5 L440.5,200" stroke="gray" stroke-width="0.8" fill="none" />
<path d="M150,117.0 L510,117.0" stroke="black" stroke-width="0.8" fill="none" />
<path d="M500.0,117.0 L561.0,200" stroke="gray" stroke-width="0.8" fill="none" />
<path d="M500.0,117.0 L731.0,200" stroke="gray" stroke-width="0.8" fill="none" />
<rect x="0" y="0" width="150" height="50" fill="lightblue" />
<rect x="0" y="100" width="150" height="50" fill="pink" />
<rect x="170" y="100" width="150" height="50" fill="lightblue" />
<rect x="0" y="200" width="150" height="50" fill="pink" />
<rect x="170" y="200" width="150" height="50" fill="pink" />
<rect x="340" y="200" width="150" height="50" fill="pink" />
<rect x="510" y="100" width="150" height="50" fill="lightblue" />
<rect x="510" y="200" width="150" height="50" fill="pink" />
<rect x="680" y="200" width="150" height="50" fill="lightblue" />
<a xlink:href="https://rakhmaevao.github.io/yanashbelyak/I0036.html" target="_parent">[...]><text x="48.05" y="25.0" font-size="14">Богдан </text>
</a><a xlink:href="https://rakhmaevao.github.io/yanashbelyak/I0037.html" target="_parent">[...]><text x="36.49999999999999" y="125.0" font-size="14">Прасковья </text>
</a><a xlink:href="https://rakhmaevao.github.io/yanashbelyak/I0035.html" target="_parent">[...]><text x="171.85" y="125.0" font-size="14">Александр Григорьев</text>
</a><a xlink:href="https://rakhmaevao.github.io/yanashbelyak/I0314.html" target="_parent">[...]><text x="13.399999999999991" y="225.0" font-size="14">Ольга Григорьева</text>
</a><a xlink:href="https://rakhmaevao.github.io/yanashbelyak/I0315.html" target="_parent">[...]><text x="175.7" y="225.0" font-size="14">Людмила Григорьева</text>
</a><a xlink:href="https://rakhmaevao.github.io/yanashbelyak/I0313.html" target="_parent">[...]><text x="349.55" y="225.0" font-size="14">Галина Григорьева</text>
</a><a xlink:href="https://rakhmaevao.github.io/yanashbelyak/I0160.html" target="_parent">[...]><text x="538.8" y="125.0" font-size="14">Петр Мочалов</text>
</a><a xlink:href="https://rakhmaevao.github.io/yanashbelyak/I0317.html" target="_parent">[...]><text x="538.8" y="225.0" font-size="14">Зоя Мочалова</text>
</a><a xlink:href="https://rakhmaevao.github.io/yanashbelyak/I0316.html" target="_parent">[...]><text x="712.65" y="225.0" font-size="14">Ким Мочалов</text>
</a></svg>