<?xml version="1.0" encoding="UTF-8"?>
<svg xmlns="http://www.w3.org/2000/svg" xmlns:xlink="http://www.w3.org/1999/xlink"
     width="1870" height="300" viewBox="0 0 1870 300">
<defs>
</defs>
<path d="M150,25.0 L170,25.0" stroke="black" stroke-width="0.8" fill="none" />
<path d="M160.0,25.0 L75.0,100" stroke="gray" stroke-width="0.8" fill="none" />
<path d="M150,133.5 L170,133.5" stroke="black" stroke-width="0.8" fill="none" />
<path d="M160.0,133.5 L100.49999999999999,200" stroke="gray" stroke-width="0.8" fill="none" />
<path d="M160.0,133.5 L270.5,200" stroke="gray" stroke-width="0.8" fill="none" />
<path d="M160.0,133.5 L440.5,200" stroke="gray" stroke-width="0.8" fill="none" />
<path d="M160.0,133.5 L610.5,200" stroke="gray" stroke-width="0.8" fill="none" />
<path d="M160.0,133.5 L780.5,200" stroke="gray" stroke-width="0.8" fill="none" />
<path d="M160.0,133.5 L950.5,200" stroke="gray" stroke-width="0.8" fill="none" />
<path d="M160.0,133.5 L1120.5,200" stroke="gray" stroke-width="0.8" fill="none" />
<path d="M160.0,133.5 L1290.5,200" stroke="gray" stroke-width="0.8" fill="none" />
<path d="M160.0,133.5 L1460.5,200" stroke="gray" stroke-width="0.8" fill="none" />
<path d="M150,117.0 L1530,117.0" stroke="black" stroke-width="0.8" fill="none" />
<path d="M1520.0,117.0 L1581.0,200" stroke="gray" stroke-width="0.8" fill="none" />
<path d="M1520.0,117.0 L1751.0,200" stroke="gray" stroke-width="0.8" fill="none" />
<rect x="0" y="0" width="150" height="50" fill="pink" />
<rect x="170" y="0" width="150" height="50" fill="lightblue" />
<rect x="0" y="100" width="150" height="50" fill="lightblue" />
<rect x="170" y="100" width="150" height="50" fill="pink" />
<rect x="0" y="200" width="150" height="50" fill="lightblue" />
<rect x="170" y="200" width="150" height="50" fill="lightblue" />
<rect x="340" y="200" width="150" height="50" fill="pink" />
<rect x="510" y="200" width="150" height="50" fill="lightblue" />
<rect x="680" y="200" width="150" height="50" fill="pink" />
<rect x="850" y="200" width="150" height="50" fill="lightblue" />
<rect x="1020" y="200" width="150" height="50" fill="pink" />
<rect x="1190" y="200" width="150" height="50" fill="lightblue" />
<rect x="1360" y="200" width="150" height="50" fill="lightblue" />
<rect x="1530" y="100" width="150" height="50" fill="pink" />
<rect x="1530" y="200" width="150" height="50" fill="pink" />
<rect x="1700" y="200" width="150" height="50" fill="pink" />
<a xlink:href="https://rakhmaevao.github.io/yanashbelyak/I0279.html" target="_parent">[...]><text x="17.249999999999993" y="25.0" font-size="14">Ксения Сергиева</text>
</a><a xlink:href="https://rakhmaevao.github.io/yanashbelyak/I0278.html" target="_parent">[...]><text x="202.64999999999998" y="25.0" font-size="14">Иван Ефимов</text>
</a><a xlink:href="https://rakhmaevao.github.io/yanashbelyak/I0038.html" target="_parent">[...]><text x="21.099999999999994" y="125.0" font-size="14">Василий Иванов</text>
</a><a xlink:href="https://rakhmaevao.github.io/yanashbelyak/I0184.html" target="_parent">[...]><text x="187.25" y="125.0" font-size="14">Клавдия Карпова</text>
</a><a xlink:href="https://rakhmaevao.github.io/yanashbelyak/I0280.html" target="_parent">[...]><text x="13.399999999999991" y="225.0" font-size="14">Александр Иванов</text>
</a><a xlink:href="https://rakhmaevao.github.io/yanashbelyak/I0187.html" target="_parent">[...]><text x="202.64999999999998" y="225.0" font-size="14">Петр Иванов</text>
</a><a xlink:href="https://rakhmaevao.github.io/yanashbelyak/I0298.html" target="_parent">[...]><text x="388.05" y="225.0" font-size="14">Агафия </text>
</a><a xlink:href="https://rakhmaevao.github.io/yanashbelyak/I0186.html" target="_parent">[...]><text x="538.8" y="225.0" font-size="14">Федор Иванов</text>
</a><a xlink:href="https://rakhmaevao.github.io/yanashbelyak/I0188.html" target="_parent">[...]><text x="704.95" y="225.0" font-size="14">Марфа Иванова</text>
</a><a xlink:href="https://rakhmaevao.github.io/yanashbelyak/I0183.html" target="_parent">[...]><text x="863.4" y="225.0" font-size="14">Александр Иванов</text>
</a><a xlink:href="https://rakhmaevao.github.io/yanashbelyak/I0283.html" target="_parent">[...]><text x="1041.1" y="225.0" font-size="14">Ксения Иванова</text>
</a><a xlink:href="https://rakhmaevao.github.io/yanashbelyak/I0185.html" target="_parent">[...]><text x="1234.2" y="225.0" font-size="14">Николай </text>
</a><a xlink:href="https://rakhmaevao.github.io/yanashbelyak/I0039.html" target="_parent">[...]><text x="1377.25" y="225.0" font-size="14">Михаил Васильев</text>
</a><a xlink:href="https://rakhmaevao.github.io/yanashbelyak/I0289.html" target="_parent">[...]><text x="1539.55" y="125.0" font-size="14">Евдокия Тимофеева</text>
</a><a xlink:href="https://rakhmaevao.github.io/yanashbelyak/I0290.html" target="_parent">[...]><text x="1535.7" y="225.0" font-size="14">Александра Иванова</text>
</a><a xlink:href="https://rakhmaevao.github.io/yanashbelyak/I0291.html" target="_parent">[...]><text x="1724.95" y="225.0" font-size="14">Мария Иванова</text>
</a></svg>