<?xml version="1.0" encoding="UTF-8"?>
<svg xmlns="http://www.w3.org/2000/svg" xmlns:xlink="http://www.w3.org/1999/xlink"
     width="1700" height="300" viewBox="0 0 1700 300">
<defs>
</defs>
<path d="M75.0,25.0 L75.0,100" stroke="gray" stroke-width="0.8" fill="none" />
<path d="M150,133.5 L170,133.5" stroke="black" stroke-width="0.8" fill="none" />
<path d="M160.0,133.5 L100.49999999999999,200" stroke="gray" stroke-width="0.8" fill="none" />
<path d="M160.0,133.5 L270.5,200" stroke="gray" stroke-width="0.8" fill="none" />
<path d="M160.0,133.5 L440.5,200" stroke="gray" stroke-width="0.8" fill="none" />
<path d="M160.0,133.5 L610.5,200" stroke="gray" stroke-width="0.8" fill="none" />
<path d="M160.0,133.5 L780.5,200" stroke="gray" stroke-width="0.8" fill="none" />
<path d="M160.0,133.5 L950.5,200" stroke="gray" stroke-width="0.8" fill="none" />
<path d="M160.0,133.5 L1120.5,200" stroke="gray" stroke-width="0.8" fill="none" />
<path d="M150,117.0 L1190,117.0" stroke="black" stroke-width="0.8" fill="none" />
<path d="M1180.0,117.0 L1241.0,200" stroke="gray" stroke-width="0.8" fill="none" />
<path d="M1180.0,117.0 L1411.0,200" stroke="gray" stroke-width="0.8" fill="none" />
<path d="M1180.0,117.0 L1581.0,200" stroke="gray" stroke-width="0.8" fill="none" />
<rect x="0" y="0" width="150" height="50" fill="lightblue" />
<rect x="0" y="100" width="150" height="50" fill="lightblue" />
<rect x="170" y="100" width="150" height="50" fill="pink" />
<rect x="0" y="200" width="150" height="50" fill="lightblue" />
<rect x="170" y="200" width="150" height="50" fill="lightblue" />
<rect x="340" y="200" width="150" height="50" fill="lightblue" />
<rect x="510" y="200" width="150" height="50" fill="pink" />
<rect x="680" y="200" width="150" height="50" fill="pink" />
<rect x="850" y="200" width="150" height="50" fill="pink" />
<rect x="1020" y="200" width="150" height="50" fill="lightblue" />
<rect x="1190" y="100" width="150" height="50" fill="pink" />
<rect x="1190" y="200" width="150" height="50" fill="lightblue" />
<rect x="1360" y="200" width="150" height="50" fill="lightblue" />
<rect x="1530" y="200" width="150" height="50" fill="pink" />
<a xlink:href="https://rakhmaevao.github.io/yanashbelyak/I0295.html" target="_parent">[...]><text x="32.64999999999999" y="25.0" font-size="14">Иван Егоров</text>
</a><a xlink:href="https://rakhmaevao.github.io/yanashbelyak/I0055.html" target="_parent">[...]><text x="24.949999999999996" y="125.0" font-size="14">Степан Иванов</text>
</a><a xlink:href="https://rakhmaevao.github.io/yanashbelyak/I0169.html" target="_parent">[...]><text x="187.25" y="125.0" font-size="14">Фёкла Михайлова</text>
</a><a xlink:href="https://rakhmaevao.github.io/yanashbelyak/I0056.html" target="_parent">[...]><text x="13.399999999999991" y="225.0" font-size="14">Дмитрий Степанов</text>
</a><a xlink:href="https://rakhmaevao.github.io/yanashbelyak/I0225.html" target="_parent">[...]><text x="214.2" y="225.0" font-size="14">Арсений </text>
</a><a xlink:href="https://rakhmaevao.github.io/yanashbelyak/I0226.html" target="_parent">[...]><text x="384.2" y="225.0" font-size="14">Георгий </text>
</a><a xlink:href="https://rakhmaevao.github.io/yanashbelyak/I0227.html" target="_parent">[...]><text x="561.9" y="225.0" font-size="14">Мария </text>
</a><a xlink:href="https://rakhmaevao.github.io/yanashbelyak/I0238.html" target="_parent">[...]><text x="716.5" y="225.0" font-size="14">Параскева </text>
</a><a xlink:href="https://rakhmaevao.github.io/yanashbelyak/I0243.html" target="_parent">[...]><text x="901.9" y="225.0" font-size="14">Ольга </text>
</a><a xlink:href="https://rakhmaevao.github.io/yanashbelyak/I0244.html" target="_parent">[...]><text x="1071.9" y="225.0" font-size="14">Иоанн </text>
</a><a xlink:href="https://rakhmaevao.github.io/yanashbelyak/I0245.html" target="_parent">[...]><text x="1207.25" y="125.0" font-size="14">Варвара Федрова</text>
</a><a xlink:href="https://rakhmaevao.github.io/yanashbelyak/I0249.html" target="_parent">[...]><text x="1238.05" y="225.0" font-size="14">Андрей </text>
</a><a xlink:href="https://rakhmaevao.github.io/yanashbelyak/I0248.html" target="_parent">[...]><text x="1408.05" y="225.0" font-size="14">Симеон </text>
</a><a xlink:href="https://rakhmaevao.github.io/yanashbelyak/I0246.html" target="_parent">[...]><text x="1581.9" y="225.0" font-size="14">Марфа </text>
</a></svg>