<?xml version="1.0" encoding="UTF-8"?>
<svg xmlns="http://www.w3.org/2000/svg" xmlns:xlink="http://www.w3.org/1999/xlink"
     width="1020" height="200" viewBox="0 0 1020 200">
<defs>
</defs>
<path d="M150,25.0 L170,25.0" stroke="black" stroke-width="0.8" fill="none" />
<path d="M160.0,25.0 L75.0,100" stroke="gray" stroke-width="0.8" fill="none" />
<path d="M160.0,25.0 L245.0,100" stroke="gray" stroke-width="0.8" fill="none" />
<path d="M160.0,25.0 L415.0,100" stroke="gray" stroke-width="0.8" fill="none" />
<path d="M160.0,25.0 L585.0,100" stroke="gray" stroke-width="0.8" fill="none" />
<path d="M160.0,25.0 L755.0,100" stroke="gray" stroke-width="0.8" fill="none" />
<path d="M160.0,25.0 L925.0,100" stroke="gray" stroke-width="0.8" fill="none" />
<rect x="0" y="0" width="150" height="50" fill="lightblue" />
<rect x="170" y="0" width="150" height="50" fill="pink" />
<rect x="0" y="100" width="150" height="50" fill="pink" />
<rect x="170" y="100" width="150" height="50" fill="pink" />
<rect x="340" y="100" width="150" height="50" fill="pink" />
<rect x="510" y="100" width="150" height="50" fill="pink" />
<rect x="680" y="100" width="150" height="50" fill="pink" />
<rect x="850" y="100" width="150" height="50" fill="lightblue" />
<a xlink:href="https://rakhmaevao.github.io/yanashbelyak/I0079.html" target="_parent">[...]><text x="28.799999999999997" y="25.0" font-size="14">Илья Истаков</text>
</a><a xlink:href="https://rakhmaevao.github.io/yanashbelyak/I0091.html" target="_parent">[...]><text x="175.7" y="25.0" font-size="14">Екатерина Истакова</text>
</a><a xlink:href="https://rakhmaevao.github.io/yanashbelyak/I0148.html" target="_parent">[...]><text x="13.399999999999991" y="125.0" font-size="14">Матрена Истакова</text>
</a><a xlink:href="https://rakhmaevao.github.io/yanashbelyak/I0228.html" target="_parent">[...]><text x="194.95" y="125.0" font-size="14">Анна Истакова</text>
</a><a xlink:href="https://rakhmaevao.github.io/yanashbelyak/I0149.html" target="_parent">[...]><text x="349.55" y="125.0" font-size="14">Катерина Истакова</text>
</a><a xlink:href="https://rakhmaevao.github.io/yanashbelyak/I0092.html" target="_parent">[...]><text x="527.25" y="125.0" font-size="14">Маруся Истакова</text>
</a><a xlink:href="https://rakhmaevao.github.io/yanashbelyak/I0147.html" target="_parent">[...]><text x="693.4" y="125.0" font-size="14">Надежда Истакова</text>
</a><a xlink:href="https://rakhmaevao.github.io/yanashbelyak/I0108.html" target="_parent">[...]><text x="867.25" y="125.0" font-size="14">Василий Истаков</text>
</a></svg>