<?xml version="1.0" encoding="UTF-8"?>
<svg xmlns="http://www.w3.org/2000/svg" xmlns:xlink="http://www.w3.org/1999/xlink"
     width="1190" height="300" viewBox="0 0 1190 300">
<defs>
</defs>
<path d="M75.0,25.0 L75.0,100" stroke="gray" stroke-width="0.8" fill="none" />
<path d="M150,125.0 L170,125.0" stroke="black" stroke-width="0.8" fill="none" />
<path d="M160.0,125.0 L75.0,200" stroke="gray" stroke-width="0.8" fill="none" />
<path d="M160.0,125.0 L245.0,200" stroke="gray" stroke-width="0.8" fill="none" />
<path d="M160.0,125.0 L415.0,200" stroke="gray" stroke-width="0.8" fill="none" />
<path d="M160.0,125.0 L585.0,200" stroke="gray" stroke-width="0.8" fill="none" />
<path d="M160.0,125.0 L755.0,200" stroke="gray" stroke-width="0.8" fill="none" />
<path d="M160.0,125.0 L925.0,200" stroke="gray" stroke-width="0.8" fill="none" />
<path d="M160.0,125.0 L1095.0,200" stroke="gray" stroke-width="0.8" fill="none" />
<rect x="0" y="0" width="150" height="50" fill="lightblue" />
<rect x="0" y="100" width="150" height="50" fill="pink" />
<rect x="170" y="100" width="150" height="50" fill="lightblue" />
<rect x="0" y="200" width="150" height="50" fill="lightblue" />
<rect x="170" y="200" width="150" height="50" fill="lightblue" />
<rect x="340" y="200" width="150" height="50" fill="lightblue" />
<rect x="510" y="200" width="150" height="50" fill="pink" />
<rect x="680" y="200" width="150" height="50" fill="pink" />
<rect x="850" y="200" width="150" height="50" fill="pink" />
<rect x="1020" y="200" width="150" height="50" fill="lightblue" />
<a xlink:href="https://rakhmaevao.github.io/yanashbelyak/I0181.html" target="_parent">[...]><text x="21.099999999999994" y="25.0" font-size="14">Михаил Игнатов</text>
</a><a xlink:href="https://rakhmaevao.github.io/yanashbelyak/I0169.html" target="_parent">[...]><text x="17.249999999999993" y="125.0" font-size="14">Фёкла Михайлова</text>
</a><a xlink:href="https://rakhmaevao.github.io/yanashbelyak/I0055.html" target="_parent">[...]><text x="194.95" y="125.0" font-size="14">Степан Иванов</text>
</a><a xlink:href="https://rakhmaevao.github.io/yanashbelyak/I0056.html" target="_parent">[...]><text x="13.399999999999991" y="225.0" font-size="14">Дмитрий Степанов</text>
</a><a xlink:href="https://rakhmaevao.github.io/yanashbelyak/I0225.html" target="_parent">[...]><text x="214.2" y="225.0" font-size="14">Арсений </text>
</a><a xlink:href="https://rakhmaevao.github.io/yanashbelyak/I0226.html" target="_parent">[...]><text x="384.2" y="225.0" font-size="14">Георгий </text>
</a><a xlink:href="https://rakhmaevao.github.io/yanashbelyak/I0227.html" target="_parent">[...]><text x="561.9" y="225.0" font-size="14">Мария </text>
</a><a xlink:href="https://rakhmaevao.github.io/yanashbelyak/I0238.html" target="_parent">[...]><text x="716.5" y="225.0" font-size="14">Параскева </text>
</a><a xlink:href="https://rakhmaevao.github.io/yanashbelyak/I0243.html" target="_parent">[...]><text x="901.9" y="225.0" font-size="14">Ольга </text>
</a><a xlink:href="https://rakhmaevao.github.io/yanashbelyak/I0244.html" target="_parent">[...]><text x="1071.9" y="225.0" font-size="14">Иоанн </text>
</a></svg>