<?xml version="1.0" encoding="UTF-8"?>
<svg xmlns="http://www.w3.org/2000/svg" xmlns:xlink="http://www.w3.org/1999/xlink"
     width="850" height="300" viewBox="0 0 850 300">
<defs>
</defs>
<path d="M75.0,25.0 L75.0,100" stroke="gray" stroke-width="0.8" fill="none" />
<path d="M150,125.0 L170,125.0" stroke="black" stroke-width="0.8" fill="none" />
<path d="M160.0,125.0 L75.0,200" stroke="gray" stroke-width="0.8" fill="none" />
<path d="M160.0,125.0 L245.0,200" stroke="gray" stroke-width="0.8" fill="none" />
<path d="M160.0,125.0 L415.0,200" stroke="gray" stroke-width="0.8" fill="none" />
<path d="M160.0,125.0 L585.0,200" stroke="gray" stroke-width="0.8" fill="none" />
<path d="M160.0,125.0 L755.0,200" stroke="gray" stroke-width="0.8" fill="none" />
<rect x="0" y="0" width="150" height="50" fill="lightblue" />
<rect x="0" y="100" width="150" height="50" fill="lightblue" />
<rect x="170" y="100" width="150" height="50" fill="pink" />
<rect x="0" y="200" width="150" height="50" fill="lightblue" />
<rect x="170" y="200" width="150" height="50" fill="lightblue" />
<rect x="340" y="200" width="150" height="50" fill="pink" />
<rect x="510" y="200" width="150" height="50" fill="lightblue" />
<rect x="680" y="200" width="150" height="50" fill="LightYellow" />
<a xlink:href="https://rakhmaevao.github.io/yanashbelyak/I0213.html" target="_parent">[...]><text x="48.05" y="25.0" font-size="14">Сергей </text>
</a><a xlink:href="https://rakhmaevao.github.io/yanashbelyak/I0214.html" target="_parent">[...]><text x="51.9" y="125.0" font-size="14">Павел </text>
</a><a xlink:href="https://rakhmaevao.github.io/yanashbelyak/I0220.html" target="_parent">[...]><text x="214.2" y="125.0" font-size="14">Авдотья </text>
</a><a xlink:href="https://rakhmaevao.github.io/yanashbelyak/I0215.html" target="_parent">[...]><text x="44.199999999999996" y="225.0" font-size="14">Алексей </text>
</a><a xlink:href="https://rakhmaevao.github.io/yanashbelyak/I0217.html" target="_parent">[...]><text x="225.75" y="225.0" font-size="14">Яков </text>
</a><a xlink:href="https://rakhmaevao.github.io/yanashbelyak/I0223.html" target="_parent">[...]><text x="376.5" y="225.0" font-size="14">Афросинья </text>
</a><a xlink:href="https://rakhmaevao.github.io/yanashbelyak/I0216.html" target="_parent">[...]><text x="558.05" y="225.0" font-size="14">Сергей </text>
</a><a xlink:href="https://rakhmaevao.github.io/yanashbelyak/I0218.html" target="_parent">[...]><text x="743.45" y="225.0" font-size="14">НЗ </text>
</a></svg>