<?xml version="1.0" encoding="UTF-8"?>
<svg xmlns="http://www.w3.org/2000/svg" xmlns:xlink="http://www.w3.org/1999/xlink"
     width="850" height="200" viewBox="0 0 850 200">
<defs>
</defs>
<path d="M150,25.0 L170,25.0" stroke="black" stroke-width="0.8" fill="none" />
<path d="M160.0,25.0 L75.0,100" stroke="gray" stroke-width="0.8" fill="none" />
<path d="M160.0,25.0 L245.0,100" stroke="gray" stroke-width="0.8" fill="none" />
<path d="M160.0,25.0 L415.0,100" stroke="gray" stroke-width="0.8" fill="none" />
<path d="M160.0,25.0 L585.0,100" stroke="gray" stroke-width="0.8" fill="none" />
<path d="M160.0,25.0 L755.0,100" stroke="gray" stroke-width="0.8" fill="none" />
<rect x="0" y="0" width="150" height="50" fill="pink" />
<rect x="170" y="0" width="150" height="50" fill="lightblue" />
<rect x="0" y="100" width="150" height="50" fill="lightblue" />
<rect x="170" y="100" width="150" height="50" fill="pink" />
<rect x="340" y="100" width="150" height="50" fill="lightblue" />
<rect x="510" y="100" width="150" height="50" fill="lightblue" />
<rect x="680" y="100" width="150" height="50" fill="LightYellow" />
<a xlink:href="https://rakhmaevao.github.io/yanashbelyak/I0220.html" target="_parent">[...]><text x="44.199999999999996" y="25.0" font-size="14">Авдотья </text>
</a><a xlink:href="https://rakhmaevao.github.io/yanashbelyak/I0214.html" target="_parent">[...]><text x="221.9" y="25.0" font-size="14">Павел </text>
</a><a xlink:href="https://rakhmaevao.github.io/yanashbelyak/I0215.html" target="_parent">[...]><text x="44.199999999999996" y="125.0" font-size="14">Алексей </text>
</a><a xlink:href="https://rakhmaevao.github.io/yanashbelyak/I0223.html" target="_parent">[...]><text x="206.5" y="125.0" font-size="14">Афросинья </text>
</a><a xlink:href="https://rakhmaevao.github.io/yanashbelyak/I0216.html" target="_parent">[...]><text x="388.05" y="125.0" font-size="14">Сергей </text>
</a><a xlink:href="https://rakhmaevao.github.io/yanashbelyak/I0217.html" target="_parent">[...]><text x="565.75" y="125.0" font-size="14">Яков </text>
</a><a xlink:href="https://rakhmaevao.github.io/yanashbelyak/I0218.html" target="_parent">[...]><text x="743.45" y="125.0" font-size="14">НЗ </text>
</a></svg>